<svg width="320" height="37" xmlns="http://www.w3.org/2000/svg" xmlns:xlink="http://www.w3.org/1999/xlink">
 <defs>
  <g id="svg_1">
   <symbol id="glyph0-1">
    <path id="svg_3" d="m18.1875,0l0,-2.92188l-11.54687,0l0,-0.07812l2.0625,-1.92188c5.40625,-5.28125 8.84375,-9.15625 8.84375,-13.95312c0,-3.71875 -2.32813,-7.5625 -7.85938,-7.5625c-2.96875,0 -5.5,1.125 -7.28125,2.64062l1.10938,2.48438c1.1875,-1 3.125,-2.20313 5.45312,-2.20313c3.84375,0 5.10938,2.4375 5.10938,5.07813c-0.04688,3.92187 -3.01563,7.28125 -9.57813,13.59375l-2.71875,2.6875l0,2.15625l16.40625,0zm0,0"/>
   </symbol>
   <symbol id="glyph0-2">
    <path id="svg_4" d="m9.32813,0l3.35937,0l0,-26l-2.96875,0l-5.60937,3.04687l0.67187,2.67188l4.46875,-2.4375l0.07813,0l0,22.71875zm0,0"/>
   </symbol>
  </g>
 </defs>
 <g>
  <title>background</title>
  <rect fill="none" id="canvas_background" height="39" width="322" y="-1" x="-1"/>
 </g>
 <g>
  <title>Layer 1</title>
  <g id="svg_5" fill="rgb(25.747681%,25.509644%,26.15509%)">
   <use id="svg_6" y="862.2041" x="1526.4375" xlink:href="#glyph0-1"/>
   <use id="svg_7" y="862.2041" x="1546.717416" xlink:href="#glyph0-2"/>
  </g>
  <g stroke="null" id="svg_40">
   <path stroke="null" id="svg_8" fill-rule="evenodd" fill="rgb(25.527954%,25.639343%,26.226807%)" d="m222.464352,29.613427l6.184986,0c0.300711,0 0.498321,0.234124 0.449993,0.534836l-0.979459,6.184983c-0.045109,0.284603 -0.31897,0.534836 -0.619681,0.534836l-6.184983,0c-0.300711,0 -0.495102,-0.250233 -0.449993,-0.534836l0.979459,-6.184983c0.048328,-0.300711 0.318967,-0.534836 0.619678,-0.534836"/>
   <path stroke="null" id="svg_9" fill-rule="evenodd" fill="rgb(25.489807%,25.489807%,25.881958%)" d="m235.930842,36.868081l7.358833,0c0.283528,0 0.555241,-0.234124 0.602495,-0.534836l0.982681,-6.201094c0.045106,-0.2846 -0.152504,-0.518724 -0.437104,-0.518724l-3.102696,0c-0.937573,0 -1.376827,-0.423146 -1.247951,-1.241509l0.003222,-0.017183l2.008322,-12.677122l1.831114,-11.566642c0.045106,-0.283528 -0.166465,-0.534836 -0.451065,-0.534836l-7.880782,0c-0.2846,0 -0.559536,0.251308 -0.60357,0.534836l-0.703448,4.438711c-0.045106,0.284603 -0.316822,0.518727 -0.60035,0.518727l-2.339102,0c-0.2846,0 -0.555241,0.225535 -0.600347,0.510135l-0.882803,5.574972c-0.045106,0.2846 0.152504,0.518724 0.437104,0.518724l2.33803,0c0.284603,0 0.481138,0.239497 0.436032,0.523024l-2.298294,14.515755c-0.534836,3.375484 1.784936,6.15706 5.149679,6.15706"/>
   <path stroke="null" id="svg_10" fill-rule="evenodd" fill="rgb(25.489807%,25.489807%,25.881958%)" d="m244.307795,15.67224l2.341252,0c0.2846,0 0.553094,-0.236272 0.5982,-0.520874l0.88495,-5.565302c0.045106,-0.283528 -0.152504,-0.517655 -0.437107,-0.517655l-2.342325,0c-0.283528,0 -0.556314,0.241644 -0.601422,0.525172l-0.881728,5.566377c-0.045106,0.283528 0.153579,0.512283 0.438179,0.512283"/>
   <path stroke="null" id="svg_11" fill-rule="evenodd" fill="rgb(25.489807%,25.489807%,25.881958%)" d="m192.23966,0.13192l7.36098,0c0.2846,0 0.48221,0.234124 0.433882,0.534836l-0.981606,6.201094c-0.045106,0.2846 -0.315747,0.511208 -0.600347,0.511208l-3.105918,0c-0.937575,0 -1.512148,0.430662 -1.642099,1.249026l-0.002147,0.017183l-0.066587,0.417773l-4.318427,27.270206c-0.045106,0.284603 -0.33615,0.534836 -0.620753,0.534836l-7.881854,0c-0.2846,0 -0.478991,-0.250233 -0.433882,-0.534836l3.19076,-20.14335c0.045106,-0.283528 -0.152504,-0.517655 -0.437107,-0.517655l-2.339102,0c-0.284603,0 -0.483285,-0.226605 -0.438179,-0.510133l0.882803,-5.576044c0.045106,-0.283528 0.31682,-0.517655 0.601422,-0.517655l2.339102,0c0.284603,0 0.556316,-0.239494 0.601422,-0.524097l0.357631,-2.255332c0.534836,-3.375484 3.735263,-6.15706 7.100005,-6.15706"/>
   <path stroke="null" id="svg_12" fill-rule="evenodd" fill="rgb(25.489807%,25.489807%,25.881958%)" d="m195.843897,9.068409l2.341252,0c0.284603,0 0.478991,0.236274 0.433882,0.519802l-0.878505,5.565305c-0.045106,0.2846 -0.31682,0.518724 -0.601422,0.518724l-2.34125,0c-0.284603,0 -0.481138,-0.241641 -0.436032,-0.526244l0.881728,-5.565305c0.045106,-0.2846 0.315747,-0.512283 0.600347,-0.512283"/>
   <path stroke="null" id="svg_13" fill-rule="evenodd" fill="rgb(25.489807%,25.489807%,25.881958%)" d="m303.415793,36.868081l-7.897963,0c-0.284603,0 -0.481138,-0.234124 -0.437104,-0.517652l5.654442,-35.700857c0.045109,-0.283528 0.316822,-0.517652 0.601422,-0.517652l7.897966,0c0.2846,0 0.48221,0.234124 0.437104,0.517652c-1.413344,8.923603 -4.241101,26.777254 -5.654445,35.700857c-0.045106,0.283528 -0.31682,0.517652 -0.601422,0.517652"/>
   <path stroke="null" id="svg_14" fill-rule="evenodd" fill="rgb(25.489807%,25.489807%,25.881958%)" d="m314.55392,9.068409c3.398037,0 5.661961,2.751509 5.123904,6.143099c-1.113705,7.035569 -2.233854,14.103354 -3.347559,21.13892c-0.045106,0.283528 -0.31682,0.517652 -0.601422,0.517652l-7.897963,0c-0.284603,0 -0.482213,-0.234124 -0.437107,-0.517652c1.003087,-6.33319 2.009397,-12.683566 3.012481,-19.016759c0.161096,-1.019196 0.250236,-1.661429 -0.905353,-1.661429c-0.284603,0 -0.482213,-0.234124 -0.437107,-0.518724l0.768963,-4.854337c0.198682,-1.253323 3.733113,-1.23077 4.721164,-1.23077"/>
   <path stroke="null" id="svg_15" fill-rule="evenodd" fill="rgb(25.489807%,25.489807%,25.881958%)" d="m162.316752,36.868081l-7.897963,0c-0.284603,0 -0.482213,-0.234124 -0.437104,-0.517652l4.238951,-26.764365c0.045109,-0.284603 0.316822,-0.517655 0.601422,-0.517655l7.897966,0c0.2846,0 0.48221,0.233052 0.437104,0.517655c-1.413341,8.923603 -2.82561,17.840762 -4.238954,26.764365c-0.045106,0.283528 -0.31682,0.517652 -0.601422,0.517652"/>
   <path stroke="null" id="svg_16" fill-rule="evenodd" fill="rgb(25.489807%,25.489807%,25.881958%)" d="m173.453804,9.068409c3.399112,0 5.661961,2.751509 5.124979,6.143099c-1.113705,7.035569 -2.233854,14.103354 -3.347559,21.13892c-0.045106,0.283528 -0.316822,0.517652 -0.601422,0.517652l-7.897963,0c-0.284603,0 -0.482213,-0.234124 -0.437107,-0.517652c1.003087,-6.33319 2.009397,-12.683566 3.011409,-19.016759c0.162168,-1.019196 0.250233,-1.661429 -0.904283,-1.661429c-0.2846,0 -0.48221,-0.234124 -0.437104,-0.518724l0.768963,-4.854337c0.198682,-1.253323 3.733113,-1.23077 4.720089,-1.23077"/>
   <path stroke="null" id="svg_17" fill-rule="evenodd" fill="rgb(25.489807%,25.489807%,25.881958%)" d="m147.945981,6.86033l0.980534,-6.193575c0.048328,-0.300711 0.320042,-0.534836 0.620753,-0.534836l7.864671,0c0.301783,0 0.496174,0.250233 0.451065,0.534836l-0.980531,6.193575c-0.045109,0.284603 -0.334006,0.518727 -0.617534,0.518727l-7.881854,0c-0.2846,0 -0.499394,-0.234124 -0.437104,-0.518727"/>
   <path stroke="null" id="svg_18" fill-rule="evenodd" fill="rgb(25.489807%,25.489807%,25.881958%)" d="m151.610363,36.868081l-7.897966,0c-0.2846,0 -0.48221,-0.234124 -0.437104,-0.517652l4.238954,-26.764365c0.045106,-0.284603 0.31682,-0.517655 0.601422,-0.517655l7.897963,0c0.284603,0 0.482213,0.233052 0.437104,0.517655l-4.238951,26.764365c-0.045109,0.283528 -0.316822,0.517652 -0.601422,0.517652"/>
   <path stroke="null" id="svg_19" fill-rule="evenodd" fill="rgb(25.489807%,25.489807%,25.881958%)" d="m256.767976,30.267472c-0.618606,0 -1.157736,-0.299636 -1.033157,-1.084707c0.650826,-4.111152 1.307021,-8.252375 1.957846,-12.362449c0.135318,-0.852733 0.752852,-1.153444 1.387566,-1.153444c0.294267,0 0.524097,-0.250233 0.567055,-0.517652l0.880655,-5.56423c0.045106,-0.284603 -0.151432,-0.518727 -0.436032,-0.518727l-3.94254,0c-3.39159,0 -6.601681,2.757951 -7.138667,6.149544c-0.817291,5.162565 -1.635654,10.325133 -2.452942,15.487698c-0.536986,3.391593 1.796747,6.164577 5.18834,6.164577l3.942537,0c0.284603,0 0.555241,-0.234124 0.602497,-0.534836l0.87958,-5.548121c0.041884,-0.266344 -0.119212,-0.517652 -0.40274,-0.517652"/>
   <path stroke="null" id="svg_20" fill-rule="evenodd" fill="rgb(25.489807%,25.489807%,25.881958%)" d="m269.419325,27.919777l-7.90226,0c-0.2846,0 -0.555241,0.234124 -0.600347,0.517652l-0.118137,0.74641c-0.124579,0.788291 -0.739965,1.083632 -1.37468,1.083632c-0.283528,0 -0.524097,0.250236 -0.56598,0.517652l-0.878508,5.548121c-0.048328,0.300711 0.14821,0.534836 0.43281,0.534836l3.959723,0c3.39159,0 6.586648,-2.772984 7.123631,-6.164577c0.129951,-0.818363 0.22983,-1.446636 0.359781,-2.266074c0.044031,-0.283528 -0.152504,-0.517652 -0.436032,-0.517652"/>
   <path stroke="null" id="svg_21" fill-rule="evenodd" fill="rgb(25.489807%,25.489807%,25.881958%)" d="m266.775214,9.066262l-3.95972,0c-0.284603,0 -0.555241,0.234124 -0.60035,0.518727l-0.880653,5.56423c-0.042959,0.267419 0.124579,0.517652 0.385554,0.517652c0.668009,0 1.169553,0.317895 1.028862,1.202845c-0.092362,0.585314 -0.160021,1.008457 -0.251308,1.587326c-0.129951,0.818363 -0.732446,1.252248 -1.635654,1.252248l-1.419786,0c-0.283528,0 -0.554169,0.233049 -0.599275,0.517652l-0.476843,3.006037c-0.045106,0.283528 0.152504,0.517655 0.436032,0.517655l11.277742,0c0.283528,0 0.554169,-0.234127 0.599275,-0.517655c0.45751,-2.891122 0.815141,-5.143234 1.269431,-8.017172c0.538058,-3.391593 -1.781714,-6.149544 -5.173307,-6.149544"/>
   <path stroke="null" id="svg_22" fill-rule="evenodd" fill="rgb(25.489807%,25.489807%,25.881958%)" d="m284.8007,9.066262l-3.942537,0c-3.391593,0 -6.601684,2.757951 -7.13867,6.149544c-0.817288,5.162565 -1.635651,10.325133 -2.452942,15.487698c-0.536986,3.391593 1.79675,6.164577 5.18834,6.164577l3.94254,0c0.2846,0 0.555241,-0.234124 0.602495,-0.534836l0.87958,-5.548121c0.041886,-0.266344 -0.119209,-0.517652 -0.386629,-0.517652c-0.634714,0 -1.173847,-0.299636 -1.049265,-1.084707l1.950327,-12.313049c0.137468,-0.868839 0.743185,-1.202845 1.412266,-1.202845c0.267419,0 0.506913,-0.250233 0.549872,-0.517652l0.880655,-5.56423c0.045106,-0.284603 -0.151429,-0.518727 -0.436032,-0.518727"/>
   <path stroke="null" id="svg_23" fill-rule="evenodd" fill="rgb(25.489807%,25.489807%,25.881958%)" d="m291.484007,9.066262l-3.959723,0c-0.2846,0 -0.555241,0.234124 -0.600347,0.518727l-0.880655,5.56423c-0.042959,0.267419 0.118137,0.517652 0.385556,0.517652c0.68519,0 1.166328,0.334006 1.02886,1.202845c-0.121357,0.768963 -0.245938,1.552959 -0.367295,2.320847c-0.045109,0.284603 0.151429,0.518727 0.436029,0.518727l7.90226,0c0.283528,0 0.555241,-0.234124 0.60035,-0.518727l0.629345,-3.974757c0.536983,-3.391593 -1.782789,-6.149544 -5.174379,-6.149544"/>
   <path stroke="null" id="svg_24" fill-rule="evenodd" fill="rgb(25.489807%,25.489807%,25.881958%)" d="m294.396609,26.226128l-7.90226,0c-0.284603,0 -0.555241,0.234127 -0.60035,0.517655l-0.386629,2.438981c-0.124579,0.785071 -0.722779,1.084707 -1.37468,1.084707c-0.283528,0 -0.524097,0.250236 -0.56598,0.517652l-0.878505,5.548121c-0.048328,0.300711 0.149282,0.534836 0.43281,0.534836l3.95972,0c3.391593,0 6.587723,-2.772984 7.124706,-6.164577l0.626125,-3.95972c0.045106,-0.283528 -0.151429,-0.517655 -0.434957,-0.517655"/>
   <path stroke="null" id="svg_25" fill-rule="evenodd" fill="rgb(25.489807%,25.489807%,25.881958%)" d="m137.990293,19.709289l-6.634976,0c-0.868841,0 -1.162033,-0.350114 -1.021343,-1.235064c0.105248,-0.668009 0.190091,-1.202845 0.262047,-1.65391c0.105248,-0.669084 0.501544,-1.153444 1.403677,-1.153444c0.267419,0 0.507988,-0.250233 0.549872,-0.517652l0.881728,-5.56423c0.045106,-0.284603 -0.152504,-0.518727 -0.436032,-0.518727l-3.942537,0c-3.391593,0 -6.601684,2.757951 -7.138667,6.149544c-0.249161,1.571215 -0.500471,3.157466 -0.749632,4.728683c-0.53913,3.407701 1.778492,6.281639 5.170085,6.281639l6.415888,0c0.868841,0 1.36931,0.316822 1.226473,1.218956c-0.105251,0.669081 -0.190093,1.202845 -0.258827,1.637801c-0.106323,0.668009 -0.505838,1.184586 -1.407972,1.184586c-0.267419,0 -0.501544,0.219091 -0.544502,0.485435l-0.883878,5.580338c-0.047253,0.300711 0.149282,0.534836 0.449993,0.534836l3.943612,0c3.390518,0 6.586648,-2.772984 7.123633,-6.164577c0.251308,-1.587326 0.500469,-3.157468 0.751777,-4.744792c0.536986,-3.391593 -1.768825,-6.249422 -5.160418,-6.249422"/>
   <path stroke="null" id="svg_26" fill-rule="evenodd" fill="rgb(25.489807%,25.489807%,25.881958%)" d="m129.687443,30.267472c-0.886022,0 -1.134111,-0.549872 -1.034229,-1.184586c0.039736,-0.251308 0.050475,-0.317895 0.098804,-0.618606c0.044034,-0.283528 -0.128876,-0.544502 -0.413479,-0.544502l-7.919441,0c-0.283528,0 -0.556316,0.243791 -0.601422,0.528391c-0.128876,0.818366 -0.227683,1.435897 -0.356559,2.255335c-0.538058,3.391593 1.79675,6.164577 5.188343,6.164577l3.942537,0c0.283528,0 0.555241,-0.234124 0.602497,-0.534836l0.880653,-5.563155c0.042959,-0.267419 -0.120284,-0.502619 -0.387704,-0.502619"/>
   <path stroke="null" id="svg_27" fill-rule="evenodd" fill="rgb(25.489807%,25.489807%,25.881958%)" d="m139.677498,9.066262l-3.942537,0c-0.300711,0 -0.571353,0.234124 -0.616459,0.518727l-0.881728,5.56423c-0.041884,0.267419 0.119209,0.517652 0.386629,0.517652c0.902133,0 1.134111,0.534838 1.036379,1.153444c-0.039736,0.250233 -0.057995,0.366223 -0.105248,0.666934c-0.062289,0.283528 0.149282,0.534836 0.43281,0.534836l7.902257,-0.001075c0.284603,0 0.555244,-0.233049 0.602497,-0.533761c0.127801,-0.802255 0.230902,-1.45308 0.359778,-2.271444c0.536986,-3.391593 -1.782786,-6.149544 -5.174379,-6.149544"/>
   <path stroke="null" id="svg_28" fill-rule="evenodd" fill="rgb(25.489807%,25.489807%,25.881958%)" d="m108.286476,9.066262l-3.942537,0c-3.391593,0 -6.601684,2.757951 -7.13867,6.149544c-0.818363,5.162565 -1.635654,10.325133 -2.454017,15.487698c-0.536983,3.391593 1.797822,6.164577 5.188343,6.164577l3.943612,0c0.283528,0 0.555241,-0.234124 0.602495,-0.534836l0.878505,-5.548121c0.042959,-0.266344 -0.121357,-0.517652 -0.385554,-0.517652c-0.634714,0 -1.177069,-0.282453 -1.049268,-1.084707l1.949254,-12.313049c0.137468,-0.868839 0.74426,-1.202845 1.412269,-1.202845c0.267416,0 0.507985,-0.250233 0.549872,-0.517652l0.881728,-5.56423c0.045106,-0.284603 -0.152504,-0.518727 -0.436032,-0.518727"/>
   <path stroke="null" id="svg_29" fill-rule="evenodd" fill="rgb(25.489807%,25.489807%,25.881958%)" d="m111.01006,9.066262l3.942537,0c3.391593,0 5.727476,2.757951 5.19049,6.149544c-0.817291,5.162565 -1.635654,10.325133 -2.452942,15.487698c-0.536986,3.391593 -3.750299,6.164577 -7.140817,6.164577l-3.943612,0c-0.283528,0 -0.480063,-0.234124 -0.43281,-0.534836l0.878505,-5.548121c0.042959,-0.266344 0.285678,-0.517652 0.549872,-0.517652c0.634717,0 1.266209,-0.282453 1.394013,-1.084707l1.949252,-12.313049c0.138543,-0.868839 -0.361928,-1.202845 -1.03101,-1.202845c-0.266344,0 -0.42744,-0.250233 -0.385554,-0.517652l0.881728,-5.56423c0.045106,-0.284603 0.315745,-0.518727 0.600347,-0.518727"/>
   <path stroke="null" id="svg_30" fill-rule="evenodd" fill="rgb(25.489807%,25.489807%,25.881958%)" d="m210.58304,9.066262l-3.943612,0c-3.390518,0 -6.600609,2.757951 -7.138667,6.149544c-0.817291,5.162565 -1.634582,10.325133 -2.452945,15.487698c-0.536983,3.391593 1.79675,6.164577 5.18834,6.164577l3.943612,0c0.283528,0 0.554169,-0.234124 0.602497,-0.534836l0.878505,-5.548121c0.041886,-0.266344 -0.121357,-0.517652 -0.385554,-0.517652c-0.634714,0 -1.177069,-0.282453 -1.05034,-1.084707l1.950327,-12.313049c0.137468,-0.868839 0.74426,-1.202845 1.412269,-1.202845c0.267416,0 0.507985,-0.250233 0.549872,-0.517652l0.880653,-5.56423c0.045106,-0.284603 -0.151429,-0.518727 -0.434957,-0.518727"/>
   <path stroke="null" id="svg_31" fill-rule="evenodd" fill="rgb(25.489807%,25.489807%,25.881958%)" d="m213.305549,9.066262l3.943612,0c3.390518,0 5.727473,2.757951 5.19049,6.149544c-0.817291,5.162565 -1.635654,10.325133 -2.452945,15.487698c-0.536983,3.391593 -3.749221,6.164577 -7.140814,6.164577l-3.943612,0c-0.283528,0 -0.481138,-0.234124 -0.43281,-0.534836l0.878505,-5.548121c0.041886,-0.266344 0.284603,-0.517652 0.549872,-0.517652c0.634717,0 1.266209,-0.282453 1.392938,-1.084707l1.950327,-12.313049c0.137468,-0.868839 -0.363001,-1.202845 -1.03101,-1.202845c-0.267419,0 -0.42744,-0.250233 -0.385556,-0.517652l0.88173,-5.56423c0.045106,-0.284603 0.315745,-0.518727 0.599272,-0.518727"/>
   <path stroke="null" id="svg_32" fill-rule="evenodd" fill="rgb(25.489807%,25.489807%,25.881958%)" d="m82.230929,36.868081l-7.903332,0c-0.283528,0 -0.478991,-0.234124 -0.433885,-0.517652l4.238954,-26.764365c0.044034,-0.284603 0.314672,-0.517655 0.5982,-0.517655l7.90226,0c0.283528,0 0.480063,0.233052 0.434957,0.517655c-0.446771,2.824535 -2.290774,14.46528 -4.238954,26.764365c-0.045106,0.283528 -0.314672,0.517652 -0.5982,0.517652"/>
   <path stroke="null" id="svg_33" fill-rule="evenodd" fill="rgb(25.489807%,25.489807%,25.881958%)" d="m95.177617,16.836424c-0.047253,0.300711 -0.294267,0.556316 -0.594978,0.534836c-2.095311,-0.147132 -5.103498,-0.114915 -6.452402,0.586386c-0.330781,0.184724 -0.690562,-0.0494 -0.634714,-0.40059l0.841991,-5.321514c0.439251,-2.767615 4.59014,-3.167132 7.546776,-3.167132c0.301783,0 0.48973,0.211571 0.442474,0.513358l-1.149147,7.254657zm0,0"/>
   <path stroke="null" id="svg_34" fill-rule="nonzero" fill="rgb(86.447144%,12.103271%,15.940857%)" d="m57.815331,9.068409l-9.589462,0c-0.284603,0 -0.555244,0.234127 -0.60035,0.517655l-4.238954,26.764365c-0.045106,0.283528 0.151429,0.517652 0.436032,0.517652l9.589465,0c0.2846,0 0.555241,-0.234124 0.600347,-0.517652l4.238954,-26.764365c0.045106,-0.283528 -0.152504,-0.517655 -0.436032,-0.517655"/>
   <path stroke="null" id="svg_35" fill-rule="nonzero" fill="rgb(86.274719%,11.764526%,15.686035%)" d="m67.07079,9.068409l-6.531875,0c-0.2846,0 -0.555241,0.234127 -0.600347,0.517655l-1.518592,9.589462c-0.045106,0.283528 0.149282,0.534836 0.43281,0.534836l6.53295,0c0.283528,0 0.557389,-0.251308 0.602495,-0.534836l1.518592,-9.589462c0.045106,-0.283528 -0.151429,-0.517655 -0.436032,-0.517655"/>
   <path stroke="null" id="svg_36" fill-rule="nonzero" fill="rgb(86.274719%,11.764526%,15.686035%)" d="m36.246824,9.068409l-9.589462,0c-0.284603,0 -0.555241,0.234127 -0.60035,0.517655l-4.238954,26.764365c-0.045106,0.283528 0.152504,0.517652 0.436032,0.517652l9.589465,0c0.2846,0 0.555241,-0.234124 0.600347,-0.517652l4.238954,-26.764365c0.045106,-0.283528 -0.151429,-0.517655 -0.436032,-0.517655"/>
   <path stroke="null" id="svg_37" fill-rule="nonzero" fill="rgb(86.274719%,11.764526%,15.686035%)" d="m45.502285,9.068409l-6.531878,0c-0.2846,0 -0.555241,0.234127 -0.600347,0.517655l-1.518592,9.589462c-0.045106,0.283528 0.149282,0.534836 0.43281,0.534836l6.53295,0c0.283528,0 0.557389,-0.251308 0.602497,-0.534836l1.518589,-9.589462c0.045109,-0.283528 -0.151429,-0.517655 -0.436029,-0.517655"/>
   <path stroke="null" id="svg_38" fill-rule="nonzero" fill="rgb(86.274719%,11.764526%,15.686035%)" d="m14.678316,9.068409l-9.589462,0c-0.284603,0 -0.555241,0.234127 -0.60035,0.517655l-4.238951,26.764365c-0.045109,0.283528 0.152501,0.517652 0.436029,0.517652l9.589465,0c0.284603,0 0.555241,-0.234124 0.600347,-0.517652l4.238954,-26.764365c0.045106,-0.283528 -0.151429,-0.517655 -0.436032,-0.517655"/>
   <path stroke="null" id="svg_39" fill-rule="nonzero" fill="rgb(86.274719%,11.764526%,15.686035%)" d="m23.933778,9.068409l-6.531878,0c-0.2846,0 -0.555241,0.234127 -0.600347,0.517655l-1.518592,9.589462c-0.045106,0.283528 0.149282,0.534836 0.43281,0.534836l6.53295,0c0.283528,0 0.557389,-0.251308 0.602497,-0.534836l1.518589,-9.589462c0.045109,-0.283528 -0.151429,-0.517655 -0.436029,-0.517655"/>
  </g>
 </g>
</svg>